<svg width="26" height="26" viewBox="0 0 26 26" fill="none" xmlns="http://www.w3.org/2000/svg">
<path d="M8.12729 24.9998C8.78871 24.9998 9.3249 24.4612 9.3249 23.7968C9.3249 23.1324 8.78871 22.5938 8.12729 22.5938C7.46587 22.5938 6.92969 23.1324 6.92969 23.7968C6.92969 24.4612 7.46587 24.9998 8.12729 24.9998Z" stroke="#004182" stroke-width="2" stroke-linecap="round" stroke-linejoin="round"/>
<path d="M21.2992 24.9998C21.9606 24.9998 22.4968 24.4612 22.4968 23.7968C22.4968 23.1324 21.9606 22.5938 21.2992 22.5938C20.6377 22.5938 20.1016 23.1324 20.1016 23.7968C20.1016 24.4612 20.6377 24.9998 21.2992 24.9998Z" stroke="#004182" stroke-width="2" stroke-linecap="round" stroke-linejoin="round"/>
<path d="M1 1H3.39521L6.58084 15.9414C6.6977 16.4886 7.0008 16.9777 7.43798 17.3246C7.87515 17.6716 8.41905 17.8546 8.97605 17.8421H20.6886C21.2337 17.8412 21.7623 17.6536 22.1869 17.3102C22.6115 16.9668 22.9068 16.4882 23.024 15.9534L25 7.01504H4.67665" stroke="#004182" stroke-width="2" stroke-linecap="round" stroke-linejoin="round"/>
</svg>
