<svg width="32" height="33" viewBox="0 0 32 33" fill="none" xmlns="http://www.w3.org/2000/svg">
<path d="M22.6667 28.5H9.33341C4.00008 28.5 2.66675 27.1667 2.66675 21.8333V11.1667C2.66675 5.83333 4.00008 4.5 9.33341 4.5H22.6667C28.0001 4.5 29.3334 5.83333 29.3334 11.1667V21.8333C29.3334 27.1667 28.0001 28.5 22.6667 28.5Z" stroke="#247CFF" stroke-width="1.5" stroke-linecap="round" stroke-linejoin="round"/>
<path d="M18.6667 11.1667H25.3334" stroke="#247CFF" stroke-width="1.5" stroke-linecap="round" stroke-linejoin="round"/>
<path d="M20 16.5H25.3333" stroke="#247CFF" stroke-width="1.5" stroke-linecap="round" stroke-linejoin="round"/>
<path d="M22.6667 21.8333H25.3334" stroke="#247CFF" stroke-width="1.5" stroke-linecap="round" stroke-linejoin="round"/>
<path d="M11.3333 15.5532C12.6661 15.5532 13.7466 14.4727 13.7466 13.1399C13.7466 11.807 12.6661 10.7266 11.3333 10.7266C10.0004 10.7266 8.91992 11.807 8.91992 13.1399C8.91992 14.4727 10.0004 15.5532 11.3333 15.5532Z" stroke="#247CFF" stroke-width="1.5" stroke-linecap="round" stroke-linejoin="round"/>
<path d="M16.0001 22.2733C15.8134 20.34 14.2801 18.82 12.3467 18.6467C11.6801 18.58 11.0001 18.58 10.3201 18.6467C8.38675 18.8333 6.85341 20.34 6.66675 22.2733" stroke="#247CFF" stroke-width="1.5" stroke-linecap="round" stroke-linejoin="round"/>
</svg>
