<svg width="68" height="25" viewBox="0 0 68 25" fill="none" xmlns="http://www.w3.org/2000/svg">
<path d="M1 20.2472V16.5472H8.47654V1.50048C8.47654 1.50048 12.7021 0.374397 15.0862 1.50048C16.5949 2.21306 17.5943 2.84047 18.4453 4.33715C20.5489 8.03716 19.6319 11.5056 17.0366 13.8338C14.6438 15.9805 9.23503 13.8338 9.23503 13.8338" stroke="#004182" stroke-width="1.5" stroke-linecap="round"/>
<path d="M11.6191 14.5737L16.5202 22.9604L20.1792 18.7671" stroke="#004182" stroke-width="1.5" stroke-linecap="round"/>
<path d="M31.0232 15.1904C31.0232 17.2049 30.4639 18.9955 29.5988 20.2615C28.7312 21.5312 27.6097 22.2104 26.4637 22.2104C25.3177 22.2104 24.1962 21.5312 23.3286 20.2615C22.4635 18.9955 21.9043 17.2049 21.9043 15.1904C21.9043 13.176 22.4635 11.3854 23.3286 10.1193C24.1962 8.84963 25.3177 8.17041 26.4637 8.17041C27.6097 8.17041 28.7312 8.84963 29.5988 10.1193C30.4639 11.3854 31.0232 13.176 31.0232 15.1904Z" stroke="#004182" stroke-width="1.5"/>
<path d="M33.4816 7.91406C33.4816 7.91406 33.0483 14.5741 33.4816 17.7807C33.915 20.9874 35.4319 22.0974 36.0821 22.4674C36.7323 22.8374 39.5494 23.4541 40.9581 22.4674C42.3668 21.4808 43.1253 20.2474 43.5587 17.7807C43.9921 15.3141 43.5587 7.91406 43.5587 7.91406" stroke="#004182" stroke-width="1.5" stroke-linecap="round"/>
<path d="M46.2591 1.00732C46.2591 1.00732 46.1508 18.644 46.2591 19.384C46.3674 20.124 47.6677 21.4807 48.1011 21.8507C48.5345 22.2207 49.4945 22.8545 50.485 22.8374C51.4358 22.8209 51.9922 22.4886 52.7604 21.8507C53.6151 21.1411 54.0073 20.5084 54.3858 19.384C54.6173 18.696 54.6921 18.2705 54.7108 17.534" stroke="#004182" stroke-width="1.5" stroke-linecap="round"/>
<path d="M46.5352 8.16064H54.8785" stroke="#004182" stroke-width="1.5" stroke-linecap="round"/>
<path d="M67.0002 17.9793C67.0002 17.9793 66.3719 20.1861 65.4833 21.186C64.6882 22.0805 64.0909 22.5609 62.9911 22.7893C61.9842 22.9984 61.3369 22.8629 60.3905 22.4193C59.6851 22.0887 59.3117 21.7918 58.7652 21.186C57.87 20.1936 57.5894 19.3475 57.2482 17.9793C56.981 16.9075 56.9812 15.1426 56.9812 15.1426M56.9812 15.1426C56.9812 15.1426 56.9488 14.3953 56.9812 14.1559C57.2482 12.1826 58.5485 10.0859 58.5485 10.0859C58.5485 10.0859 59.307 8.83236 60.3905 8.48261C61.164 8.23294 62.2035 8.05181 62.9911 8.23594C64.0664 8.48735 64.6739 8.87177 65.4833 9.71594C66.025 10.281 66.5012 11.0918 66.7835 12.3059C67.0216 13.3303 67.0002 15.1426 67.0002 15.1426H56.9812Z" stroke="#004182" stroke-width="1.5" stroke-linecap="round"/>
</svg>
